HIERARCHY
ROOT Hips
{
    OFFSET   0.000000   0.000000   0.000000
    CHANNELS 6 Xposition Yposition Zposition Zrotation Xrotation Yrotation
    JOINT Chest
    {
        OFFSET   0.000000   8.007230   0.000000
        CHANNELS 3 Zrotation Xrotation Yrotation
        JOINT Chest2
        {
            OFFSET   0.000000  22.077100   0.000000
            CHANNELS 3 Zrotation Xrotation Yrotation
            JOINT Neck
            {
                OFFSET   0.000000  23.255100   0.000000
                CHANNELS 3 Zrotation Xrotation Yrotation
                JOINT Head
                {
                    OFFSET   0.000000  14.370100   1.956600
                    CHANNELS 3 Zrotation Xrotation Yrotation
                    End Site
                    {
                        OFFSET   0.000000  19.566000   0.000000
                    }
                }
            }
            JOINT LeftCollar
            {
                OFFSET   3.911900  19.017000  -0.467063
                CHANNELS 3 Zrotation Xrotation Yrotation
                JOINT LeftShoulder
                {
                    OFFSET  10.383700   0.000000   0.000000
                    CHANNELS 3 Zrotation Xrotation Yrotation
                    JOINT LeftElbow
                    {
                        OFFSET  26.662100   0.001193   0.000980
                        CHANNELS 3 Zrotation Xrotation Yrotation
                        JOINT LeftWrist
                        {
                            OFFSET  28.869000  -0.000059  -0.000082
                            CHANNELS 3 Zrotation Xrotation Yrotation
                            JOINT LeftFinger0
                            {
                                OFFSET   2.044650  -2.323450   3.252850
                                CHANNELS 3 Zrotation Xrotation Yrotation
                                JOINT LeftFinger01
                                {
                                    OFFSET   3.088130   0.000000   0.000000
                                    CHANNELS 3 Zrotation Xrotation Yrotation
                                    JOINT LeftFinger02
                                    {
                                        OFFSET   2.639460   0.000000   0.000000
                                        CHANNELS 3 Zrotation Xrotation Yrotation
                                        End Site
                                        {
                                            OFFSET   2.582190   0.000000   0.000000
                                        }
                                    }
                                }
                            }
                            JOINT LeftFinger1
                            {
                                OFFSET   8.364480   0.000000   3.252850
                                CHANNELS 3 Zrotation Xrotation Yrotation
                                JOINT LeftFinger11
                                {
                                    OFFSET   4.646930   0.000000   0.000000
                                    CHANNELS 3 Zrotation Xrotation Yrotation
                                    JOINT LeftFinger12
                                    {
                                        OFFSET   2.323470   0.000000   0.000000
                                        CHANNELS 3 Zrotation Xrotation Yrotation
                                        End Site
                                        {
                                            OFFSET   2.273050   0.000000   0.000000
                                        }
                                    }
                                }
                            }
                            JOINT LeftFinger2
                            {
                                OFFSET   8.364490   0.000016   1.078090
                                CHANNELS 3 Zrotation Xrotation Yrotation
                                JOINT LeftFinger21
                                {
                                    OFFSET   5.111610   0.000000   0.000000
                                    CHANNELS 3 Zrotation Xrotation Yrotation
                                    JOINT LeftFinger22
                                    {
                                        OFFSET   2.788150   0.000016   0.000000
                                        CHANNELS 3 Zrotation Xrotation Yrotation
                                        End Site
                                        {
                                            OFFSET   2.727660   0.000000   0.000000
                                        }
                                    }
                                }
                            }
                            JOINT LeftFinger3
                            {
                                OFFSET   7.899780   0.000015  -1.078090
                                CHANNELS 3 Zrotation Xrotation Yrotation
                                JOINT LeftFinger31
                                {
                                    OFFSET   4.646930   0.000000   0.000000
                                    CHANNELS 3 Zrotation Xrotation Yrotation
                                    JOINT LeftFinger32
                                    {
                                        OFFSET   2.323470   0.000000   0.000000
                                        CHANNELS 3 Zrotation Xrotation Yrotation
                                        End Site
                                        {
                                            OFFSET   2.273050   0.000000   0.000000
                                        }
                                    }
                                }
                            }
                            JOINT LeftFinger4
                            {
                                OFFSET   7.435090   0.000000  -3.252850
                                CHANNELS 3 Zrotation Xrotation Yrotation
                                JOINT LeftFinger41
                                {
                                    OFFSET   3.717550   0.000000   0.000000
                                    CHANNELS 3 Zrotation Xrotation Yrotation
                                    JOINT LeftFinger42
                                    {
                                        OFFSET   1.858770   0.000000   0.000000
                                        CHANNELS 3 Zrotation Xrotation Yrotation
                                        End Site
                                        {
                                            OFFSET   1.818440   0.000000   0.000000
                                        }
                                    }
                                }
                            }
                        }
                    }
                }
            }
            JOINT RightCollar
            {
                OFFSET  -3.911910  19.017000  -0.467062
                CHANNELS 3 Zrotation Xrotation Yrotation
                JOINT RightShoulder
                {
                    OFFSET -10.383700   0.000014   0.000000
                    CHANNELS 3 Zrotation Xrotation Yrotation
                    JOINT RightElbow
                    {
                        OFFSET -26.662100   0.001225   0.001091
                        CHANNELS 3 Zrotation Xrotation Yrotation
                        JOINT RightWrist
                        {
                            OFFSET -28.869000  -0.000020  -0.000085
                            CHANNELS 3 Zrotation Xrotation Yrotation
                            JOINT RightFinger0
                            {
                                OFFSET  -2.044650  -2.323490   3.252850
                                CHANNELS 3 Zrotation Xrotation Yrotation
                                JOINT RightFinger01
                                {
                                    OFFSET  -3.088130   0.000000   0.000000
                                    CHANNELS 3 Zrotation Xrotation Yrotation
                                    JOINT RightFinger02
                                    {
                                        OFFSET  -2.639460   0.000000   0.000000
                                        CHANNELS 3 Zrotation Xrotation Yrotation
                                        End Site
                                        {
                                            OFFSET  -2.582190   0.000000   0.000000
                                        }
                                    }
                                }
                            }
                            JOINT RightFinger1
                            {
                                OFFSET  -8.364480   0.000000   3.252850
                                CHANNELS 3 Zrotation Xrotation Yrotation
                                JOINT RightFinger11
                                {
                                    OFFSET  -4.646930   0.000000   0.000000
                                    CHANNELS 3 Zrotation Xrotation Yrotation
                                    JOINT RightFinger12
                                    {
                                        OFFSET  -2.323470   0.000000   0.000000
                                        CHANNELS 3 Zrotation Xrotation Yrotation
                                        End Site
                                        {
                                            OFFSET  -2.273050   0.000000   0.000000
                                        }
                                    }
                                }
                            }
                            JOINT RightFinger2
                            {
                                OFFSET  -8.364480   0.000000   1.078090
                                CHANNELS 3 Zrotation Xrotation Yrotation
                                JOINT RightFinger21
                                {
                                    OFFSET  -5.111620   0.000000   0.000000
                                    CHANNELS 3 Zrotation Xrotation Yrotation
                                    JOINT RightFinger22
                                    {
                                        OFFSET  -2.788160   0.000000   0.000000
                                        CHANNELS 3 Zrotation Xrotation Yrotation
                                        End Site
                                        {
                                            OFFSET  -2.727660   0.000000   0.000000
                                        }
                                    }
                                }
                            }
                            JOINT RightFinger3
                            {
                                OFFSET  -7.899780   0.000000  -1.078090
                                CHANNELS 3 Zrotation Xrotation Yrotation
                                JOINT RightFinger31
                                {
                                    OFFSET  -4.646930   0.000000   0.000000
                                    CHANNELS 3 Zrotation Xrotation Yrotation
                                    JOINT RightFinger32
                                    {
                                        OFFSET  -2.323470   0.000000   0.000000
                                        CHANNELS 3 Zrotation Xrotation Yrotation
                                        End Site
                                        {
                                            OFFSET  -2.273050   0.000000   0.000000
                                        }
                                    }
                                }
                            }
                            JOINT RightFinger4
                            {
                                OFFSET  -7.435090   0.000000  -3.252850
                                CHANNELS 3 Zrotation Xrotation Yrotation
                                JOINT RightFinger41
                                {
                                    OFFSET  -3.717550   0.000000   0.000000
                                    CHANNELS 3 Zrotation Xrotation Yrotation
                                    JOINT RightFinger42
                                    {
                                        OFFSET  -1.858760   0.000000   0.000000
                                        CHANNELS 3 Zrotation Xrotation Yrotation
                                        End Site
                                        {
                                            OFFSET  -1.818440   0.000000   0.000000
                                        }
                                    }
                                }
                            }
                        }
                    }
                }
            }
        }
    }
    JOINT LeftHip
    {
        OFFSET   9.783030   0.000000   0.000000
        CHANNELS 3 Zrotation Xrotation Yrotation
        JOINT LeftKnee
        {
            OFFSET   0.000063 -41.789100   0.000608
            CHANNELS 3 Zrotation Xrotation Yrotation
            JOINT LeftAnkle
            {
                OFFSET   0.000048 -41.133200  -0.000184
                CHANNELS 3 Zrotation Xrotation Yrotation
                JOINT LeftToe
                {
                    OFFSET   0.000000  -6.358960  14.674500
                    CHANNELS 3 Zrotation Xrotation Yrotation
                    End Site
                    {
                        OFFSET   0.000000   0.000000   3.913200
                    }
                }
            }
        }
    }
    JOINT RightHip
    {
        OFFSET  -9.783030   0.000000   0.000000
        CHANNELS 3 Zrotation Xrotation Yrotation
        JOINT RightKnee
        {
            OFFSET   0.000071 -41.789100   0.001239
            CHANNELS 3 Zrotation Xrotation Yrotation
            JOINT RightAnkle
            {
                OFFSET   0.000037 -41.133200  -0.000166
                CHANNELS 3 Zrotation Xrotation Yrotation
                JOINT RightToe
                {
                    OFFSET   0.000000  -6.358960  14.674500
                    CHANNELS 3 Zrotation Xrotation Yrotation
                    End Site
                    {
                        OFFSET   0.000000   0.000000   3.913200
                    }
                }
            }
        }
    }
}
MOTION
Frames: 6
Frame Time:   0.016667
  0.074039  89.875000  -0.098738  -0.830152  -4.140190  -3.408720  -0.040993   3.674050  -0.614887  -0.042512   7.348330  -1.230940   1.430180  -0.261243   0.002397   2.358950  -0.528512   7.081800  -5.916690  -0.467677   6.185470 -69.183400  23.535500  -2.036940  -3.747720  -9.063850 -14.681100  10.268800  -9.249620   7.634620  50.951000  43.584800 -84.698700 -24.013300   0.001385   0.001941  -7.006620   0.006866   0.008261 -34.627100   3.173800  -4.583880 -28.435200   0.009248   0.003184 -19.904600  -0.001679   0.003015 -28.391000   2.656700  -4.901290 -36.218500   0.008162  -0.002841 -24.121500   0.009715  -0.011469 -27.666400  -1.309250   2.498520 -30.220900   0.005014  -0.003763 -20.127100   0.000156   0.004041 -29.619400  -1.749070   3.074020 -44.499600  -0.001237   0.001115 -29.636700  -0.001364   0.003669  11.003200   2.147110   7.874480  64.789500  11.802500   0.651174   2.314660  -6.020060  11.256900 -17.470600 -23.793400  -6.793980 -38.629400  35.562100  74.463000  30.054400  -0.005106  -0.010864  10.027200  -0.001515  -0.007612  29.536900   1.225150   2.161010  24.185400   0.002487  -0.005570  16.929800   0.000996  -0.000680  26.823400  -1.753060  -3.478990  26.876400   0.001393  -0.000801  17.899700   0.008050  -0.001073  27.558100  -2.700520  -5.158930  30.119900   0.001489  -0.001855  20.059900   0.001896  -0.001928  32.375900  -3.124820  -4.913980  48.765000  -0.000446  -0.000502  32.477500  -0.000424   0.000464   1.969150   3.576960   2.173770   0.060670   2.212690  18.824000  -5.730280  -2.791000   3.584040  -0.000000   0.000000   0.000000   2.188170   2.716790  -4.804790  -0.988687   3.048260 -10.724600  -6.751070   0.321991   3.389190   0.000000   0.000000   0.000000
  0.072902  89.875000  -0.106263  -0.831042  -4.146670  -3.415800  -0.040966   3.676480  -0.612085  -0.042610   7.353200  -1.225320   1.430180  -0.240178   0.002400   2.356670  -0.486044   7.080980  -5.919740  -0.472746   6.185470 -69.196800  23.540200  -2.043220  -3.746340  -9.057380 -14.681400  10.266500  -9.250200   7.622760  50.950300  43.590100 -84.719100 -24.013300   0.001380   0.001936  -7.006620   0.006871   0.008267 -34.645400   3.177570  -4.586550 -28.450200   0.009254   0.003182 -19.915100  -0.001684   0.003010 -28.390300   2.658770  -4.905100 -36.220000   0.008159  -0.002835 -24.122600   0.009710  -0.011470 -27.666500  -1.309250   2.498010 -30.237900   0.005016  -0.003772 -20.138500   0.000158   0.004038 -29.635800  -1.747500   3.069000 -44.524000  -0.001231   0.001114 -29.653000  -0.001356   0.003672  11.004600   2.137020   7.873900  64.789100  11.818900   0.650844   2.314210  -6.022360  11.245700 -17.477900 -23.798200  -6.810660 -38.634800  35.585500  74.497200  30.070300  -0.005106  -0.010867  10.035200  -0.001518  -0.007608  29.556500   1.236960   2.180050  24.201700   0.002486  -0.005571  16.941300   0.000997  -0.000678  26.844800  -1.753070  -3.468330  26.897700   0.001391  -0.000805  17.913800   0.008052  -0.001090  27.565300  -2.694080  -5.145160  30.154900   0.001482  -0.001845  20.083200   0.001891  -0.001929  32.396800  -3.118420  -4.900050  48.795300  -0.000452  -0.000505  32.497700  -0.000431   0.000465   1.969000   3.576460   2.173760   0.062185   2.219090  18.825000  -5.730150  -2.790790   3.584040  -0.000000   0.000000  -0.000000   2.188100   2.713260  -4.804880  -0.990251   3.045400 -10.724300  -6.751350   0.327643   3.393630  -0.000000   0.000000  -0.000000
  0.070980  89.875000  -0.118965  -0.832664  -4.159630  -3.427780  -0.040924   3.682150  -0.607350  -0.042771   7.364540  -1.215830   1.430190  -0.208433   0.002410   2.352890  -0.422019   7.080140  -5.926140  -0.483742   6.185480 -69.217300  23.548200  -2.053460  -3.744000  -9.045030 -14.685100  10.260100  -9.251020   7.599810  50.955000  43.601300 -84.757100 -24.013300   0.001370   0.001925  -7.006630   0.006878   0.008275 -34.662800   3.187480  -4.597400 -28.465200   0.009272   0.003175 -19.925700  -0.001697   0.002995 -28.388800   2.665720  -4.917890 -36.224300   0.008147  -0.002819 -24.125400   0.009696  -0.011471 -27.666800  -1.309250   2.494490 -30.255000   0.005022  -0.003794 -20.149800   0.000162   0.004031 -29.652300  -1.743710   3.059600 -44.548400  -0.001214   0.001113 -29.669200  -0.001337   0.003679  11.007200   2.118150   7.873280  64.788500  11.850000   0.650549   2.313590  -6.024700  11.232900 -17.486200 -23.810500  -6.827730 -38.609900  35.608800  74.531400  30.099700  -0.005106  -0.010870  10.049900  -0.001530  -0.007600  29.591900   1.257840   2.213620  24.231300   0.002479  -0.005573  16.962000   0.000998  -0.000675  26.880300  -1.753100  -3.453770  26.932700   0.001386  -0.000815  17.937100   0.008059  -0.001132  27.577600  -2.682670  -5.120840  30.215400   0.001467  -0.001816  20.123400   0.001876  -0.001939  32.431700  -3.106920  -4.875550  48.845900  -0.000468  -0.000516  32.531400  -0.000446   0.000466   1.968850   3.575960   2.173760   0.064631   2.231050  18.828000  -5.730020  -2.790580   3.584090  -0.000000   0.000000   0.000000   2.188020   2.709730  -4.804970  -0.992122   3.040930 -10.723900  -6.751810   0.335773   3.402500  -0.000000   0.000000  -0.000000
  0.069360  89.875100  -0.129346  -0.834287  -4.173940  -3.438720  -0.040881   3.689980  -0.603126  -0.042855   7.380200  -1.207370   1.429030  -0.190989   0.002433   2.349380  -0.386777   7.083760  -5.932430  -0.497402   6.182310 -69.230700  23.557400  -2.061710  -3.741560  -9.028580 -14.696200  10.240600  -9.250730   7.575270  50.973200  43.618400 -84.798600 -24.007900   0.001357   0.001909  -7.003930   0.006879   0.008277 -34.660200   3.203360  -4.620140 -28.464700   0.009301   0.003161 -19.925300  -0.001717   0.002970 -28.388900   2.678920  -4.942280 -36.227600   0.008125  -0.002792 -24.127600   0.009676  -0.011467 -27.667500  -1.302660   2.480590 -30.245400   0.005031  -0.003828 -20.143400   0.000169   0.004023 -29.652400  -1.738000   3.049810 -44.542500  -0.001187   0.001111 -29.669000  -0.001308   0.003692  11.014700   2.097520   7.877460  64.788200  11.886000   0.650728   2.311180  -6.017370  11.231600 -17.466600 -23.831000  -6.820420 -38.547800  35.595500  74.536200  30.132500  -0.005092  -0.010866  10.066300  -0.001553  -0.007591  29.636000   1.279320   2.247660  24.268000   0.002466  -0.005574  16.987700   0.001002  -0.000671  26.910200  -1.753710  -3.451080  26.958000   0.001373  -0.000833  17.954000   0.008074  -0.001195  27.589500  -2.671000  -5.096060  30.274100   0.001448  -0.001773  20.162500   0.001851  -0.001962  32.465100  -3.094820  -4.850810  48.894300  -0.000491  -0.000538  32.563500  -0.000467   0.000468   1.968930   3.579310   2.170500   0.066479   2.243420  18.833900  -5.729910  -2.791360   3.589000   0.000000   0.000000   0.000000   2.183310   2.717340  -4.804820  -0.987855   3.037310 -10.724000  -6.752250   0.339750   3.413170  -0.000000   0.000000   0.000000
  0.067753  89.875100  -0.140151  -0.836003  -4.191970  -3.447870  -0.040886   3.699890  -0.599421  -0.043020   7.400020  -1.199960   1.427880  -0.175806   0.002459   2.346900  -0.356038   7.089090  -5.943630  -0.515113   6.168410 -69.240300  23.563000  -2.068520  -3.741160  -9.016420 -14.715000  10.220500  -9.245670   7.545720  50.994600  43.631300 -84.838700 -23.993300   0.001339   0.001886  -6.996630   0.006882   0.008279 -34.656400   3.222860  -4.649260 -28.462300   0.009338   0.003143 -19.923600  -0.001743   0.002938 -28.390700   2.695660  -4.973060 -36.240100   0.008097  -0.002758 -24.135900   0.009650  -0.011462 -27.668700  -1.290720   2.459620 -30.230300   0.005044  -0.003871 -20.133400   0.000178   0.004013 -29.652300  -1.731370   3.038910 -44.536500  -0.001152   0.001109 -29.668600  -0.001271   0.003709  11.024300   2.076770   7.883170  64.788100  11.919900   0.651460   2.303860  -6.010040  11.230500 -17.410800 -23.854400  -6.795100 -38.498600  35.554000  74.539600  30.163100  -0.005071  -0.010855  10.081600  -0.001588  -0.007583  29.663800   1.297760   2.277150  24.291500   0.002448  -0.005575  17.004100   0.001006  -0.000669  26.936200  -1.754330  -3.447800  26.986600   0.001357  -0.000855  17.973100   0.008093  -0.001277  27.599600  -2.660770  -5.074540  30.323700   0.001423  -0.001718  20.195600   0.001819  -0.001993  32.487700  -3.084010  -4.829440  48.926700  -0.000520  -0.000569  32.585100  -0.000495   0.000472   1.969040   3.587050   2.164660   0.068120   2.257120  18.840100  -5.729940  -2.792130   3.595980   0.000000   0.000000   0.000000   2.175920   2.730720  -4.804540  -0.980376   3.035310 -10.724500  -6.752710   0.341817   3.424640   0.000000   0.000000   0.000000
  0.066379  89.875100  -0.151667  -0.837617  -4.214590  -3.451800  -0.040924   3.711450  -0.597280  -0.043132   7.423120  -1.195660   1.429510  -0.159345   0.002486   2.348860  -0.322635   7.092260  -5.964920  -0.539709   6.135840 -69.242900  23.557600  -2.070320  -3.740640  -9.014010 -14.740900  10.208900  -9.216010   7.509120  51.012900  43.630600 -84.868400 -23.967200   0.001307   0.001849  -6.983600   0.006892   0.008286 -34.649700   3.245720  -4.683330 -28.457900   0.009380   0.003122 -19.920600  -0.001772   0.002901 -28.392800   2.715460  -5.008980 -36.281300   0.008065  -0.002719 -24.163400   0.009617  -0.011459 -27.669700  -1.277810   2.435120 -30.223100   0.005058  -0.003921 -20.128600   0.000188   0.004001 -29.652700  -1.724790   3.026830 -44.541500  -0.001113   0.001106 -29.668400  -0.001228   0.003731  11.030700   2.057320   7.884930  64.793200  11.941200   0.661912   2.292930  -6.081540  11.229800 -17.311300 -23.866100  -6.746440 -38.419300  35.423800  74.416500  30.180700  -0.005057  -0.010836  10.091600  -0.001640  -0.007578  29.660600   1.304990   2.290250  24.289300   0.002429  -0.005576  17.002500   0.001007  -0.000667  26.953900  -1.725730  -3.387710  27.022500   0.001340  -0.000879  17.997000   0.008113  -0.001376  27.602700  -2.655820  -5.065130  30.338400   0.001390  -0.001653  20.205400   0.001780  -0.002029  32.491500  -3.078540  -4.820080  48.931700  -0.000555  -0.000612  32.588500  -0.000529   0.000479   1.969170   3.597740   2.157660   0.069523   2.270790  18.844100  -5.730400  -2.791370   3.599530   0.000000   0.000000   0.000000   2.169730   2.742380  -4.804270  -0.972663   3.039890 -10.729600  -6.753050   0.342409   3.435460  -0.000000   0.000000   0.000000
